<?xml version="1.0" encoding="UTF-8"?>
<!-- Generator: Adobe Illustrator 27.4.1, SVG Export Plug-In . SVG Version: 6.00 Build 0)  -->
<svg xmlns="http://www.w3.org/2000/svg" xmlns:xlink="http://www.w3.org/1999/xlink" version="1.1" id="Ebene_1" x="0px" y="0px" viewBox="0 0 320.4 203.4" style="enable-background:new 0 0 320.4 203.4;" xml:space="preserve">
<style type="text/css">
	.st0{fill:#1D1D1B;}
	.st1{fill:#939699;}
</style>
<path class="st0" d="M49.1,124.3H33.1l-1.1,1.8c-2.6-2.1-5.8-2.9-9.1-2.9c-7.3,0-13.8,3.8-18.2,9.4C2.2,136,0,140.4,0,144.7  c0,5.4,3.8,8.7,9.1,8.7c3.5,0,6.5-0.9,9.4-2.9c0.7-0.5,1.4-1,2.1-1.4c-0.7,1.1-1.3,2.2-1.9,3.3h14.1L49.1,124.3L49.1,124.3z   M26.7,135.3c-1.8,3-3.6,7.4-7.8,7.4c-1.2,0-2.3-0.5-2.3-1.9c0-2.2,2.1-4.6,3.8-5.9c1.1-0.8,2.3-1.3,3.6-1.3  C25.4,133.7,26,134.1,26.7,135.3L26.7,135.3z M85.3,123.6c-1.1-0.2-2.3-0.3-3.4-0.3c-2.9,0-6.3,1.1-8.7,2.6c-1.6,1-2.9,2.4-4.2,3.8  c1.3-1.8,2.3-3.5,3.4-5.4H57.8l-16.3,28.2h15.9l4.9-8.5c1.5-2.7,3-4.3,5.9-5.5c1.6-0.6,3.3-1,5-1c1.3,0,2.5,0.2,3.8,0.5L85.3,123.6  L85.3,123.6z M116.4,112.2h-15.9l-23.2,40.2h16L116.4,112.2L116.4,112.2z M126.2,139.1h-15.7l-7.7,13.3h15.7L126.2,139.1  L126.2,139.1z M186.2,131.9c0-5.4-3.8-8.7-9.1-8.7c-4.7,0-7.9,1.5-11.6,4.3c0.8-1.1,1.4-2.2,2-3.3h-14.1l-23.2,40.2h16l7.7-13.4  c3.1,1.8,6.1,2.3,9.7,2.3c6.6,0,12.3-2.9,16.6-7.8C183.3,142.1,186.2,136.8,186.2,131.9L186.2,131.9z M169.5,135.9  c0,3.1-4.1,7.1-7.3,7.1c-1.3,0-2.1-0.5-3-1.3c1.7-3.1,3.6-7.8,7.9-7.8C168.4,134,169.5,134.4,169.5,135.9L169.5,135.9z M237,124.3  h-15.9l-1.1,1.8c-2.6-2.1-5.8-2.9-9.1-2.9c-7.3,0-13.8,3.8-18.2,9.4c-2.6,3.4-4.7,7.8-4.7,12.1c0,5.4,3.8,8.7,9.1,8.7  c3.5,0,6.5-0.9,9.4-2.9c0.7-0.5,1.4-1,2.1-1.4c-0.7,1.1-1.3,2.2-1.9,3.3h14.1L237,124.3L237,124.3z M214.7,135.3  c-1.8,3-3.6,7.4-7.8,7.4c-1.2,0-2.3-0.5-2.3-1.9c0-2.2,2.1-4.6,3.8-5.9c1.1-0.8,2.3-1.3,3.6-1.3C213.3,133.7,214,134.1,214.7,135.3  L214.7,135.3z M273.3,123.6c-1.1-0.2-2.3-0.3-3.4-0.3c-2.9,0-6.3,1.1-8.7,2.6c-1.6,1-2.9,2.4-4.2,3.8c1.3-1.8,2.3-3.5,3.4-5.4h-14.6  l-16.3,28.2h15.9l4.9-8.5c1.5-2.7,3-4.3,5.9-5.5c1.6-0.6,3.3-1,5-1c1.3,0,2.5,0.2,3.8,0.5L273.3,123.6L273.3,123.6z M320.4,124.3  h-17.6l-8.5,6.5c-1.1,0.9-2.2,2.1-3.2,3.1c0.9-1.2,1.9-2.5,2.6-3.8l10.3-17.9h-16l-23.2,40.2h16l5.4-9.3c0.7-1.3,1.3-2.6,1.8-4  c-0.2,1.5-0.5,2.9-0.5,4.4v8.9h16.3l-2.5-14.7L320.4,124.3L320.4,124.3z"></path>
<path class="st1" d="M223.3,100.7L165.2,0L107,100.7H123l42.1-73l42.1,73H223.3L223.3,100.7z M69.5,165.7l-21.8,37.7h234.8  l-21.8-37.7h-16l13.7,23.8H71.7l13.7-23.8H69.5L69.5,165.7z"></path>
</svg>
